<svg width="36" height="36" viewBox="0 0 36 36" fill="none" xmlns="http://www.w3.org/2000/svg">
<path d="M6 8C6 7.44772 6.44772 7 7 7H22C22.5523 7 23 7.44772 23 8V8C23 8.55228 22.5523 9 22 9H7C6.44772 9 6 8.55228 6 8V8Z" fill="black"/>
<path d="M5.625 18C5.625 17.3787 6.12868 16.875 6.75 16.875H29.25C29.8713 16.875 30.375 17.3787 30.375 18V18C30.375 18.6213 29.8713 19.125 29.25 19.125H6.75C6.12868 19.125 5.625 18.6213 5.625 18V18Z" fill="black"/>
<path d="M6 28C6 27.4477 6.44772 27 7 27H22C22.5523 27 23 27.4477 23 28V28C23 28.5523 22.5523 29 22 29H7C6.44772 29 6 28.5523 6 28V28Z" fill="black"/>
</svg>
